<svg xmlns="http://www.w3.org/2000/svg" fill="none" viewBox="0 0 24 20"><g filter="url(#a)"><path fill="#757575" d="M18.5 0h-13C4.673 0 4 .673 4 1.5v9c0 .827.673 1.5 1.5 1.5h13c.827 0 1.5-.673 1.5-1.5v-9c0-.827-.673-1.5-1.5-1.5Zm0 1c.068 0 .133.014.192.039L12 6.839l-6.692-5.8A.498.498 0 0 1 5.5 1h13Zm0 10h-13a.5.5 0 0 1-.5-.5V2.095l6.672 5.783a.5.5 0 0 0 .656 0L19 2.095V10.5a.5.5 0 0 1-.5.5Z"/></g><defs><filter id="a" width="24" height="20" x="0" y="0" color-interpolation-filters="sRGB" filterUnits="userSpaceOnUse"><feFlood flood-opacity="0" result="BackgroundImageFix"/><feColorMatrix in="SourceAlpha" result="hardAlpha" values="0 0 0 0 0 0 0 0 0 0 0 0 0 0 0 0 0 0 127 0"/><feOffset dy="4"/><feGaussianBlur stdDeviation="2"/><feComposite in2="hardAlpha" operator="out"/><feColorMatrix values="0 0 0 0 0 0 0 0 0 0 0 0 0 0 0 0 0 0 0.25 0"/><feBlend in2="BackgroundImageFix" result="effect1_dropShadow_1_306"/><feBlend in="SourceGraphic" in2="effect1_dropShadow_1_306" result="shape"/></filter></defs></svg>