<svg xmlns="http://www.w3.org/2000/svg" xmlns:xlink="http://www.w3.org/1999/xlink" aria-hidden="true" overflow="hidden" style="position:absolute;width:0;height:0"><defs><path id="reuse-0" fill="var(--color3, #fff)" d="M32 16c0 4.418-1.791 8.418-4.686 11.314S20.419 32 16 32s-8.418-1.791-11.314-4.686C1.791 24.419 0 20.419 0 16S1.791 7.582 4.686 4.686 11.581 0 16 0c4.418 0 8.418 1.791 11.314 4.686S32 11.581 32 16z"/><path id="reuse-1" fill="var(--color1, #afb1b8)" d="M18.422 11.142h1.328V8.829a17.317 17.317 0 0 0-1.935-.102c-1.915 0-3.226 1.204-3.226 3.418v2.037h-2.113v2.585h2.113v6.505h2.59v-6.505h2.027l.322-2.585h-2.35v-1.781c.001-.747.202-1.259 1.243-1.259z"/><path id="reuse-2" fill="var(--color1, #afb1b8)" d="M23.269 23.273v-.001h.004v-5.335c0-2.61-.562-4.62-3.613-4.62-1.467 0-2.451.805-2.853 1.568h-.042v-1.324h-2.893v9.711h3.012v-4.809c0-1.266.24-2.49 1.808-2.49 1.545 0 1.568 1.445 1.568 2.572v4.728h3.009zM8.967 13.562h3.016v9.711H8.967v-9.711zM10.474 8.727c-.964 0-1.747.782-1.747 1.747s.782 1.763 1.747 1.763c.964 0 1.747-.799 1.747-1.763s-.783-1.747-1.747-1.747z"/><path id="reuse-3" fill="var(--color2, #757575)" d="M17 0H3C1.346 0 0 1.346 0 3v26c0 1.654 1.346 3 3 3h14c1.654 0 3-1.346 3-3V3c0-1.654-1.346-3-3-3zM3 2h14a1 1 0 0 1 1 1v21H2V3a1 1 0 0 1 1-1zm14 28H3a1 1 0 0 1-1-1v-3h16v3a1 1 0 0 1-1 1z"/><path id="reuse-4" fill="var(--color1, #afb1b8)" d="M23.273 11.49a6.248 6.248 0 0 1-1.718.471 2.967 2.967 0 0 0 1.312-1.648 5.963 5.963 0 0 1-1.891.722 2.981 2.981 0 0 0-5.158 2.039c0 .236.02.464.069.68a8.439 8.439 0 0 1-6.146-3.119 2.985 2.985 0 0 0 .917 3.985 2.943 2.943 0 0 1-1.347-.367v.033a2.996 2.996 0 0 0 2.389 2.93 2.992 2.992 0 0 1-.782.098 2.64 2.64 0 0 1-.565-.051 3.01 3.01 0 0 0 2.786 2.077 5.991 5.991 0 0 1-3.697 1.272 5.59 5.59 0 0 1-.714-.041 8.393 8.393 0 0 0 4.575 1.338c5.487 0 8.487-4.545 8.487-8.485 0-.132-.005-.259-.011-.385a5.95 5.95 0 0 0 1.495-1.548z"/></defs><defs><symbol id="icon-brand" viewBox="0 0 57 32"><path  d="M14.27 23.859c.13.147.199.332.196.521.007.123-.017.247-.07.361s-.132.216-.233.297c-.252.175-.565.26-.881.24h-1.549v-3.302h1.517c.299-.018.596.059.84.219.098.075.176.17.227.277s.074.224.068.341a.725.725 0 0 1-.176.505.839.839 0 0 1-.462.258.897.897 0 0 1 .523.282zm-1.816-.499h.648a.653.653 0 0 0 .412-.11c.049-.04.087-.09.111-.146s.034-.116.028-.176c.005-.06-.005-.12-.029-.175s-.061-.106-.108-.147a.665.665 0 0 0-.425-.111h-.638v.866zm1.124 1.267c.052-.041.093-.093.12-.151s.038-.121.034-.184c.004-.064-.008-.127-.035-.186s-.069-.111-.121-.153a.714.714 0 0 0-.44-.119h-.68v.908h.689a.732.732 0 0 0 .435-.114zM17.371 25.278l-.844-1.291h-.317v1.291h-.726v-3.302h1.374c.346-.022.689.078.957.281.192.179.308.415.327.666s-.061.499-.224.7c-.17.178-.401.296-.655.336l.898 1.32h-.789zm-1.161-1.74h.594c.412 0 .618-.167.618-.5a.458.458 0 0 0-.151-.371.687.687 0 0 0-.467-.134h-.601l.007 1.005zM21.339 24.614h-1.446l-.255.665h-.761l1.328-3.265h.823l1.323 3.265h-.761l-.25-.665zm-.194-.5-.529-1.394-.529 1.394h1.057zM26.305 25.278h-.721l-1.616-2.245v2.245h-.719v-3.302h.719l1.616 2.258v-2.258h.721v3.302zM30.417 24.488a1.501 1.501 0 0 1-.652.582 2.282 2.282 0 0 1-1.013.208h-1.283v-3.302h1.283c.351-.008.698.061 1.013.203.276.127.503.328.652.576a1.78 1.78 0 0 1 0 1.732zm-.824-.079c.206-.219.319-.499.319-.788s-.113-.569-.319-.788a1.326 1.326 0 0 0-.902-.281h-.5v2.137h.5c.329.019.654-.082.902-.281zM21.79 3.609s9.301 3.215 9.103 7.867v7.869s-9.294-3.217-9.1-7.869l-.004-7.867zM39.179 17.503a13.494 13.494 0 0 1 5.909-1.994v-2.463c-2.444.862-4.517 2.426-5.909 4.457z"/><path fill="var(--color1, #afb1b8)" d="M38.124 18.245c1.438-2.651 3.93-4.696 6.964-5.715V5.432s-13.245 4.58-12.965 11.205V27.84s.59-.205 1.519-.589c0-.358 0-.719.042-1.082.274-3.076 1.871-5.926 4.44-7.924z"/><path fill="var(--color1, #afb1b8)" d="M36.864 22.407c.07-.777.225-1.546.463-2.294-1.599 1.725-2.568 3.866-2.77 6.122-.019.213-.03.426-.035.645a40.466 40.466 0 0 0 2.548-1.229 10.624 10.624 0 0 1-.206-3.244zM37.391 22.447a10.17 10.17 0 0 0 .164 2.938c3.619-1.983 7.685-5.046 7.528-8.748v-.323c-2.585.265-5.004 1.3-6.885 2.946a10.29 10.29 0 0 0-.807 3.188z"/></symbol><symbol id="icon-companythree" viewBox="0 0 57 32"><path  d="M28.493 14.618a1.58 1.58 0 0 1-.323-1.061v-1.538c0-.471.107-.83.321-1.075s.581-.367 1.102-.366c.489 0 .836.104 1.042.313.224.266.333.592.308.92v.361h-.875v-.366c.003-.12-.005-.24-.025-.358a.352.352 0 0 0-.125-.213.505.505 0 0 0-.317-.083.533.533 0 0 0-.333.088.412.412 0 0 0-.145.235 1.74 1.74 0 0 0-.034.38v1.866c-.014.18.025.36.112.524.044.055.104.099.175.127s.149.038.226.029a.478.478 0 0 0 .31-.084.375.375 0 0 0 .13-.227c.02-.124.03-.249.027-.374v-.379h.875v.346c.025.342-.082.682-.303.967-.201.228-.544.343-1.047.343s-.884-.122-1.1-.375zM32.137 14.633c-.221-.239-.332-.588-.332-1.05v-1.617c0-.457.11-.802.332-1.037s.591-.351 1.109-.35c.515 0 .882.117 1.103.35.221.235.333.58.333 1.037v1.617c0 .457-.112.807-.337 1.048s-.591.361-1.1.361c-.509 0-.886-.122-1.109-.36zm1.517-.388a.906.906 0 0 0 .105-.479v-1.98a.88.88 0 0 0-.103-.469c-.044-.057-.106-.101-.179-.129s-.152-.037-.231-.027c-.079-.009-.159 0-.231.028s-.135.072-.18.129a.853.853 0 0 0-.105.469v1.99a.888.888 0 0 0 .105.479c.051.05.114.091.185.119a.612.612 0 0 0 .635-.119v-.009zM35.735 10.626h.942l.708 2.984.725-2.984h.917l.092 4.308h-.678l-.072-2.994-.699 2.994h-.544l-.725-3.005-.067 3.005h-.685l.085-4.308zM40.176 10.626h1.468c.846 0 1.268.408 1.268 1.223 0 .781-.445 1.171-1.335 1.17h-.5v1.915h-.906l.005-4.308zm1.254 1.841a.7.7 0 0 0 .498-.136.693.693 0 0 0 .13-.486 1.327 1.327 0 0 0-.044-.391c-.013-.043-.036-.083-.067-.118s-.07-.065-.114-.087a.94.94 0 0 0-.404-.069h-.352v1.287h.352zM44.218 10.626h.973l.998 4.308h-.844l-.197-.993h-.868l-.203.993h-.857l.998-4.308zm.832 2.815-.339-1.808-.339 1.808h.678zM46.996 10.626h.634l1.214 2.457v-2.457h.752v4.308h-.603l-1.221-2.565v2.565h-.777l.002-4.308zM51.357 13.291l-1.009-2.659h.85l.616 1.708.578-1.708h.832l-.997 2.659v1.642h-.87v-1.642zM29.892 16.817v.225h-.739v1.75h-.31v-1.75H28.1v-.225h1.792zM32.209 18.793h-.239a.105.105 0 0 1-.067-.019.102.102 0 0 1-.04-.045l-.214-.469h-1.026l-.214.469a.119.119 0 0 1-.033.053.112.112 0 0 1-.067.019h-.239l.906-1.976h.315l.917 1.968zm-1.5-.734h.855l-.362-.804a1.426 1.426 0 0 1-.067-.186 4.03 4.03 0 0 0-.034.105l-.033.083-.359.802zM33.771 18.599a1.018 1.018 0 0 0 .315-.023.961.961 0 0 0 .13-.036c.04-.014.08-.031.121-.048v-.444h-.362c-.009 0-.018-.001-.026-.003s-.016-.007-.023-.012c-.006-.004-.011-.01-.014-.016s-.005-.013-.004-.02v-.152h.703v.757a1.407 1.407 0 0 1-.609.202 2.591 2.591 0 0 1-.264.012 1.41 1.41 0 0 1-.457-.073 1.104 1.104 0 0 1-.362-.206.956.956 0 0 1-.234-.313.99.99 0 0 1-.083-.41.907.907 0 0 1 .316-.726c.103-.089.227-.159.362-.205.155-.05.32-.075.486-.074.084 0 .169.006.252.017a1.21 1.21 0 0 1 .397.128c.056.031.108.065.158.103l-.087.122c-.007.011-.017.021-.029.027s-.027.01-.041.01a.118.118 0 0 1-.056-.016 1.344 1.344 0 0 1-.089-.047.727.727 0 0 0-.121-.053 1.171 1.171 0 0 0-.167-.044 1.362 1.362 0 0 0-.23-.017 1.06 1.06 0 0 0-.35.055.704.704 0 0 0-.435.402.924.924 0 0 0 0 .659.756.756 0 0 0 .446.405c.115.034.237.047.359.039zM36.659 18.567h.989v.225h-1.292v-1.976h.31l-.007 1.75zM38.678 18.792h-.31v-1.976h.31v1.976zM39.83 16.826a.151.151 0 0 1 .047.036l1.324 1.489a.41.41 0 0 1 0-.07v-1.472h.27v1.984h-.156a.14.14 0 0 1-.067-.011.184.184 0 0 1-.049-.038l-1.323-1.488v1.536h-.259v-1.976h.161c.017 0 .035.003.051.009zM43.753 16.817v.217h-1.098v.652h.89v.21h-.89v.674h1.098v.217h-1.417v-1.971h1.417zM11.286 4.616l13.757 3.372v11.818l-13.757-3.371V4.616zm-.882-1.007V17.01l15.52 3.806V7.417L10.404 3.61z"/><path fill="var(--color1, #afb1b8)" d="M18.722 27.036 3.2 23.227V9.828l15.522 3.807v13.401z"/><path fill="var(--color1, #afb1b8)" d="m10.661 4.465 13.578 3.33-5.774 4.987L4.885 9.45l5.776-4.985zm-.257-.856L3.2 9.828l15.522 3.807 7.202-6.219-15.52-3.807zM19.595 26.282l6.329-5.465-6.329-1.553v7.018z"/></symbol><symbol id="icon-companytwo" viewBox="0 0 57 32"><path  d="M19.417 26.187c.008 0 .017.002.025.005s.015.007.02.013l.116.111a.955.955 0 0 1-.327.211 1.299 1.299 0 0 1-.464.076 1.213 1.213 0 0 1-.436-.071.942.942 0 0 1-.329-.2.878.878 0 0 1-.212-.308 1.02 1.02 0 0 1-.074-.396.91.91 0 0 1 .305-.705 1.06 1.06 0 0 1 .349-.201c.143-.048.296-.072.449-.071.143-.003.285.019.417.064.115.043.221.104.313.178l-.097.119a.085.085 0 0 1-.025.021.066.066 0 0 1-.039.009.086.086 0 0 1-.042-.013l-.052-.032-.073-.04a.818.818 0 0 0-.229-.071 1.11 1.11 0 0 0-.173-.013.952.952 0 0 0-.323.053.683.683 0 0 0-.417.387.81.81 0 0 0-.06.313.795.795 0 0 0 .06.318.68.68 0 0 0 .402.383.867.867 0 0 0 .3.05c.059.001.119-.003.177-.01a.69.69 0 0 0 .384-.163.09.09 0 0 1 .055-.02zM22.776 25.629a.974.974 0 0 1-.078.393c-.047.114-.122.218-.219.305s-.214.155-.344.2a1.42 1.42 0 0 1-.884 0 1.027 1.027 0 0 1-.342-.201.904.904 0 0 1-.221-.308 1.022 1.022 0 0 1 0-.787.94.94 0 0 1 .221-.31c.097-.084.214-.15.342-.193.284-.096.6-.096.884 0 .129.046.246.114.343.201a.914.914 0 0 1 .298.699zm-.306 0a.84.84 0 0 0-.055-.316.653.653 0 0 0-.402-.385 1.025 1.025 0 0 0-.643 0 .683.683 0 0 0-.246.149.63.63 0 0 0-.157.236.927.927 0 0 0 0 .632.643.643 0 0 0 .403.384c.207.067.435.067.643 0a.698.698 0 0 0 .246-.148.662.662 0 0 0 .156-.236.82.82 0 0 0 .055-.316zM25.067 25.96l.03.071.033-.071a.68.68 0 0 1 .038-.07l.743-1.174c.015-.02.028-.033.042-.037a.207.207 0 0 1 .061-.006h.22v1.909h-.26V25.119a.726.726 0 0 1 0-.066l-.747 1.19c-.009.018-.025.033-.044.043s-.041.016-.064.016h-.042c-.023 0-.045-.005-.064-.016s-.034-.026-.044-.044l-.769-1.198v1.533h-.252v-1.905h.22a.207.207 0 0 1 .061.006.087.087 0 0 1 .041.037l.759 1.175a.418.418 0 0 1 .038.068zM27.864 25.865v.715h-.291v-1.906h.649c.122-.002.244.012.362.042a.724.724 0 0 1 .256.119.492.492 0 0 1 .145.187.576.576 0 0 1 .049.244.54.54 0 0 1-.211.435.752.752 0 0 1-.257.126 1.25 1.25 0 0 1-.35.044l-.352-.005zm0-.205h.352a.808.808 0 0 0 .225-.029.52.52 0 0 0 .163-.082.358.358 0 0 0 .134-.286c.003-.053-.007-.106-.029-.155s-.057-.094-.102-.13a.624.624 0 0 0-.391-.102h-.352v.786zM31.772 26.583h-.23a.109.109 0 0 1-.064-.018.123.123 0 0 1-.038-.044l-.198-.461h-.993l-.205.461a.107.107 0 0 1-.101.062h-.23l.872-1.909h.302l.884 1.909zm-1.439-.709h.82l-.346-.777a1.276 1.276 0 0 1-.065-.179l-.034.1a.98.98 0 0 1-.032.081l-.343.776zM33.029 24.682c.017.008.032.02.044.034l1.272 1.439V24.673h.26v1.909h-.145a.136.136 0 0 1-.06-.011.165.165 0 0 1-.047-.035l-1.271-1.438a.726.726 0 0 1 0 .066v1.419h-.26v-1.909h.154a.15.15 0 0 1 .052.009zM36.748 25.823v.758h-.291v-.758l-.804-1.15h.26a.114.114 0 0 1 .063.016.159.159 0 0 1 .039.043l.503.742a.717.717 0 0 1 .088.169l.038-.082a.745.745 0 0 1 .049-.087l.496-.747a.18.18 0 0 1 .038-.04.098.098 0 0 1 .063-.019h.263l-.806 1.155zM24.923 21.47c.127.014.255.025.384.035 1.962-.763 3.622-2.011 4.772-3.588s1.74-3.415 1.695-5.282l-2.162-1.879c.44 1.988.234 4.043-.594 5.935s-2.245 3.547-4.094 4.779z"/><path fill="var(--color1, #afb1b8)" d="m24.151 21.383.058.01c1.975-1.228 3.482-2.942 4.323-4.921s.981-4.133.4-6.181l-3.08-2.676c1.246 2.2 1.747 4.661 1.446 7.098s-1.393 4.75-3.147 6.67zM34.596 14.841c-.523 2.052-1.794 3.902-3.624 5.276-.534.404-1.111.763-1.722 1.074 1.49-.38 2.859-1.053 4.003-1.966s2.03-2.042 2.592-3.3l-1.249-1.084z"/><path fill="var(--color1, #afb1b8)" d="m34.106 14.539-1.778-1.545c-.034 1.762-.61 3.483-1.669 4.986s-2.562 2.731-4.352 3.559h.009c.399 0 .798-.021 1.194-.062 1.673-.593 3.151-1.537 4.303-2.748s1.94-2.65 2.295-4.189zM24.409 6.486 22.287 4.64c-1.897.637-3.528 1.756-4.68 3.212s-1.772 3.179-1.778 4.946c.007 1.952.763 3.846 2.149 5.383s3.322 2.628 5.501 3.101c1.946-2.06 3.085-4.605 3.252-7.266s-.647-5.299-2.323-7.53zM39.008 14.255c-.008-2.316-1.07-4.535-2.955-6.173s-4.439-2.561-7.105-2.567a11.3 11.3 0 0 0-3.602.582l12.99 11.286a7.647 7.647 0 0 0 .672-3.128z"/></symbol><symbol id="icon-companyone" viewBox="0 0 57 32"><path  d="M26.727 3.165h-.073a7.542 7.542 0 0 0-.336-.012h-.243c-.212 0-.428.005-.642.016a.4.4 0 0 0-.049 0c-1.944.11-3.848.596-5.609 1.431l-.231.111V16.52l.54-.183a20.64 20.64 0 0 1 1.5-.445 18.34 18.34 0 0 1 4.317-.574v1.551c-.193.001-.38.007-.568.016h-.045a17.207 17.207 0 0 0-3.322.51 16.858 16.858 0 0 0-3.957 1.542V3.792a15.847 15.847 0 0 1 4.151-1.688c1.278-.33 2.593-.5 3.913-.504h.228c.273.007.538.019.788.038.658.046 1.31.15 1.95.311v1.527a12.05 12.05 0 0 0-1.889-.285l-.039-.003c-.132-.011-.263-.022-.386-.022zm2.688 1.561c.339.026.689.038 1.044.038a16.75 16.75 0 0 0 4.114-.528 16.958 16.958 0 0 0 3.956-1.543v14.875a15.88 15.88 0 0 1-4.153 1.688 15.948 15.948 0 0 1-3.913.503c-1 .008-1.997-.11-2.968-.35V4.438c.229.053.465.102.706.142.394.066.81.115 1.214.145zm7.57.115-.54.182c-.497.167-.997.316-1.5.449a18.23 18.23 0 0 1-4.483.575c-.352 0-.676-.01-.989-.03l-.43-.028v12.148l.37.033c.343.03.696.045 1.052.045a14.364 14.364 0 0 0 3.531-.457c.95-.238 1.874-.57 2.759-.991l.231-.111V4.843zM19.06 24.113a.788.788 0 0 0-.6-.243.895.895 0 0 0-.347.065.778.778 0 0 0-.444.449.893.893 0 0 0-.062.335v2.023a.94.94 0 0 0 .08.415.718.718 0 0 0 .48.415c.098.028.2.042.302.042a.855.855 0 0 0 .838-.851v-.226h-.529v.18a.458.458 0 0 1-.031.18.315.315 0 0 1-.077.114.38.38 0 0 1-.222.077.266.266 0 0 1-.249-.109.479.479 0 0 1-.07-.271v-1.887a.643.643 0 0 1 .065-.302c.027-.043.066-.077.112-.098s.097-.03.147-.024a.28.28 0 0 1 .236.114c.059.078.09.173.088.271v.175h.524v-.206a.953.953 0 0 0-.242-.639zM22.202 24.09a.92.92 0 0 0-1.197 0 .82.82 0 0 0-.205.283.959.959 0 0 0-.077.392v1.941a.932.932 0 0 0 .077.397.791.791 0 0 0 .205.271.837.837 0 0 0 .279.171.897.897 0 0 0 .918-.171.849.849 0 0 0 .2-.271.934.934 0 0 0 .077-.397v-1.941a.943.943 0 0 0-.077-.392.867.867 0 0 0-.2-.283zm-.247 2.616a.355.355 0 0 1-.105.28.386.386 0 0 1-.498 0 .352.352 0 0 1-.105-.28v-1.941a.355.355 0 0 1 .105-.28.386.386 0 0 1 .498 0 .352.352 0 0 1 .105.28v1.941zM26.329 27.573v-3.674h-.509l-.668 1.945h-.009l-.673-1.945h-.503v3.674h.525v-2.235h.009l.514 1.58h.262l.518-1.58h.009v2.235h.525zM29.311 24.157a.727.727 0 0 0-.297-.201 1.168 1.168 0 0 0-.38-.057h-.78v3.674h.523v-1.435h.27a.964.964 0 0 0 .472-.1.759.759 0 0 0 .287-.281.875.875 0 0 0 .12-.32c.021-.138.03-.278.028-.418a2.107 2.107 0 0 0-.051-.525.785.785 0 0 0-.193-.338zm-.27 1.12a.45.45 0 0 1-.049.191.296.296 0 0 1-.135.129.538.538 0 0 1-.247.046h-.239v-1.249h.27a.506.506 0 0 1 .236.046.3.3 0 0 1 .123.136.537.537 0 0 1 .046.205v.244c0 .085.005.174 0 .252h-.005zM31.791 23.899h-.429l-.809 3.674h.523l.154-.789h.714l.154.789h.524l-.83-3.674zm-.483 2.384.258-1.332h.009l.256 1.332h-.524zM35.173 26.112h-.009l-.791-2.213h-.503v3.674h.523v-2.209h.011l.8 2.209h.492v-3.674h-.523v2.213zM38.372 23.899l-.421 1.461h-.011l-.421-1.461h-.554l.719 2.121v1.553h.524V26.02l.719-2.121h-.554zM17.6 28.61h.252v.708h.171v-.708h.251v-.145h-.675v.145zM19.721 28.465l-.331.853h.182l.07-.194h.34l.073.194h.186l-.339-.853h-.182zm-.027.516.116-.316.116.316h-.232zM21.818 29.004h.197v.11a.332.332 0 0 1-.202.072c-.034.002-.069-.004-.1-.019s-.059-.036-.081-.063a.352.352 0 0 1-.063-.222c0-.19.082-.285.246-.285.043-.004.086.007.121.032s.061.062.072.104l.169-.033c-.036-.167-.156-.251-.362-.251a.426.426 0 0 0-.298.11.413.413 0 0 0-.122.328.465.465 0 0 0 .109.32.408.408 0 0 0 .324.125.511.511 0 0 0 .362-.136v-.336h-.37v.144zM23.959 28.465h-.173v.853h.598v-.145h-.425v-.708zM25.769 28.465h-.173v.853h.173v-.853zM27.539 29.035l-.349-.57h-.167v.853h.161v-.557l.343.557h.171v-.853h-.158v.57zM29.14 28.943h.425v-.145h-.425v-.187h.457v-.145h-.63v.853h.648v-.145h-.475v-.231zM33.02 28.802h-.336v-.336h-.171v.853h.171v-.373h.336v.373h.171v-.853h-.171v.336zM34.629 28.943h.426v-.145h-.426v-.187h.459v-.145h-.63v.853h.646v-.145h-.475v-.231zM36.812 28.943c.148-.023.224-.102.224-.237a.203.203 0 0 0-.084-.189.479.479 0 0 0-.25-.05h-.362v.853h.171v-.357h.034a.231.231 0 0 1 .107.019.181.181 0 0 1 .061.062l.186.271h.205L37 29.148a.6.6 0 0 0-.189-.205zm-.172-.118h-.127v-.214h.135a.445.445 0 0 1 .174.02c.012.011.022.025.029.04a.116.116 0 0 1-.004.097.114.114 0 0 1-.032.037.486.486 0 0 1-.174.02zM38.458 28.943h.425v-.145h-.425v-.187h.459v-.145h-.631v.853h.648v-.145h-.475v-.231z"/></symbol><symbol id="icon-envelope" viewBox="0 0 38 32"><path fill="var(--color2, #757575)" d="M29.6 0H8.8a2.403 2.403 0 0 0-2.4 2.4v14.4c0 1.323 1.077 2.4 2.4 2.4h20.8c1.323 0 2.4-1.077 2.4-2.4V2.4C32 1.077 30.923 0 29.6 0zm0 1.6c.109 0 .212.023.307.062L19.2 10.942 8.493 1.662A.805.805 0 0 1 8.8 1.6h20.8zm0 16H8.8a.801.801 0 0 1-.8-.8V3.352l10.676 9.252a.8.8 0 0 0 1.048 0L30.4 3.352V16.8c0 .441-.359.8-.8.8z"/></symbol><symbol id="icon-facebook" viewBox="0 0 32 32"><use xlink:href="#reuse-0"/><use xlink:href="#reuse-1"/></symbol><symbol id="icon-fosters" viewBox="0 0 57 32"><path  d="M12.878 11.255h-.002c-1.279 0-2.316.921-2.316 2.058v.001c0 1.137 1.037 2.058 2.316 2.058h.002c1.279 0 2.316-.921 2.316-2.058v-.001c0-1.137-1.037-2.058-2.316-2.058zM29.971 10.597c-.004-1.579-.711-3.092-1.967-4.208s-2.958-1.745-4.735-1.749c-1.777.003-3.48.631-4.737 1.748s-1.964 2.63-1.968 4.209v8.706s13.405-1.327 13.406-8.704v-.001zM5.867 22.16c.003 1.098.496 2.151 1.369 2.928s2.058 1.215 3.294 1.218c1.236-.003 2.42-.441 3.294-1.218s1.366-1.829 1.37-2.927v-6.057s-9.327.924-9.327 6.056zm4.663 1.085c-.242 0-.478-.064-.678-.183s-.357-.289-.45-.487c-.092-.198-.117-.417-.069-.627s.163-.404.334-.556c.171-.152.388-.255.625-.297s.482-.02.706.062c.223.082.414.221.548.4s.206.388.206.603c.001.143-.031.284-.092.417s-.151.252-.264.353c-.114.101-.248.182-.397.236s-.308.083-.468.083v-.004zM19.956 22.647h-.9v.93h-.469v-2.275h1.481v.38h-1.012v.588h.9v.378zm2.253-.156c0 .224-.04.42-.119.589a.893.893 0 0 1-.847.528c-.189 0-.357-.045-.505-.136s-.262-.22-.344-.387a1.344 1.344 0 0 1-.123-.581v-.112c0-.224.04-.421.12-.591a.895.895 0 0 1 .848-.529c.189 0 .358.046.505.137a.888.888 0 0 1 .342.392c.081.17.122.366.122.589v.102zm-.475-.103c0-.238-.043-.42-.128-.544s-.207-.186-.366-.186a.416.416 0 0 0-.364.184c-.085.122-.129.301-.13.538v.111c0 .232.043.412.128.541s.208.192.369.192a.415.415 0 0 0 .363-.184c.084-.124.127-.304.128-.541v-.111zm1.996.592a.237.237 0 0 0-.094-.203 1.203 1.203 0 0 0-.337-.15 2.418 2.418 0 0 1-.386-.156c-.258-.14-.387-.328-.387-.564 0-.123.034-.232.103-.328a.688.688 0 0 1 .298-.227c.13-.054.276-.081.438-.081.163 0 .307.03.434.089a.662.662 0 0 1 .401.614h-.469c0-.104-.033-.185-.098-.242s-.158-.087-.277-.087a.426.426 0 0 0-.267.073.225.225 0 0 0-.095.191c0 .074.037.136.111.186.075.05.185.097.33.141.267.08.461.18.583.298s.183.267.183.444a.55.55 0 0 1-.223.464c-.149.111-.349.167-.602.167-.175 0-.334-.032-.478-.095-.144-.065-.254-.153-.33-.264s-.113-.241-.113-.388h.47c0 .251.15.377.45.377a.442.442 0 0 0 .261-.067.222.222 0 0 0 .094-.191zm2.501-1.298h-.697v1.895h-.469v-1.895h-.687v-.38h1.853v.38zm1.638.909h-.9v.609h1.056v.377H26.5v-2.275h1.522v.38h-1.053v.542h.9v.367zm1.273.153h-.373v.833H28.3v-2.275h.845c.269 0 .476.06.622.18s.219.289.219.508a.697.697 0 0 1-.102.389.689.689 0 0 1-.305.247l.492.93v.022h-.503l-.427-.833zm-.373-.379h.378c.118 0 .209-.03.273-.089a.321.321 0 0 0 .097-.248.343.343 0 0 0-.092-.253c-.06-.061-.154-.092-.28-.092h-.377v.683zm2.84.41v.802h-.469v-2.275h.887c.171 0 .321.031.45.094a.703.703 0 0 1 .405.659.655.655 0 0 1-.23.528c-.152.128-.363.192-.633.192h-.411zm0-.379h.419c.124 0 .218-.029.283-.088.066-.058.098-.142.098-.25 0-.111-.033-.202-.098-.27s-.156-.104-.272-.106h-.43v.714zm2.966.195h-.9v.609h1.056v.377h-1.525v-2.275h1.522v.38h-1.053v.542h.9v.367zm2.175-.909h-.697v1.895h-.469v-1.895h-.688v-.38h1.853v.38zm1.637.909h-.9v.609h1.056v.377h-1.525v-2.275h1.522v.38h-1.053v.542h.9v.367zm1.274.153h-.373v.833h-.469v-2.275h.845c.269 0 .476.06.622.18s.219.289.219.508a.697.697 0 0 1-.102.389.689.689 0 0 1-.305.247l.492.93v.022h-.503l-.427-.833zm-.374-.379h.378c.118 0 .209-.03.273-.089a.321.321 0 0 0 .097-.248.343.343 0 0 0-.092-.253c-.06-.061-.154-.092-.28-.092h-.377v.683zm2.755.615a.237.237 0 0 0-.094-.203 1.203 1.203 0 0 0-.337-.15 2.418 2.418 0 0 1-.386-.156c-.258-.14-.388-.328-.388-.564 0-.123.034-.232.103-.328a.688.688 0 0 1 .298-.227c.13-.054.276-.081.438-.081.163 0 .307.03.434.089a.675.675 0 0 1 .295.248.646.646 0 0 1 .106.366h-.469c0-.104-.033-.185-.098-.242s-.158-.087-.277-.087a.426.426 0 0 0-.267.073.225.225 0 0 0-.095.191c0 .074.037.136.111.186.075.05.185.097.33.141.267.08.461.18.583.298s.183.267.183.444a.548.548 0 0 1-.223.464c-.149.111-.349.167-.602.167-.175 0-.334-.032-.478-.095a.773.773 0 0 1-.33-.264.678.678 0 0 1-.112-.388h.47c0 .251.15.377.45.377a.442.442 0 0 0 .261-.067.222.222 0 0 0 .094-.191z"/></symbol><symbol id="icon-in" viewBox="0 0 32 32"><use xlink:href="#reuse-0"/><use xlink:href="#reuse-2"/></symbol><symbol id="icon-instagram" viewBox="0 0 32 32"><use xlink:href="#reuse-0"/><path fill="var(--color1, #afb1b8)" d="M23.258 13.004c-.034-.773-.159-1.304-.338-1.765a3.557 3.557 0 0 0-.841-1.29 3.589 3.589 0 0 0-1.287-.838c-.463-.179-.992-.304-1.764-.338-.779-.037-1.026-.046-3.001-.046s-2.222.009-2.998.043c-.773.034-1.304.159-1.764.338a3.557 3.557 0 0 0-1.29.841 3.589 3.589 0 0 0-.838 1.287c-.179.463-.304.992-.338 1.764-.037.779-.045 1.026-.045 3.001s.008 2.222.043 2.998c.034.773.159 1.304.338 1.765.185.489.472.926.841 1.29.364.369.804.656 1.287.838.463.179.992.304 1.765.338.776.034 1.023.043 2.998.043s2.222-.008 2.998-.043c.773-.034 1.304-.159 1.764-.338a3.72 3.72 0 0 0 2.128-2.128c.179-.463.304-.992.338-1.765.034-.776.043-1.023.043-2.998s-.003-2.222-.037-2.998zm-1.309 5.938c-.031.71-.151 1.094-.25 1.35a2.409 2.409 0 0 1-1.381 1.381c-.256.099-.642.219-1.35.25-.767.034-.997.043-2.938.043s-2.174-.008-2.938-.043c-.71-.031-1.094-.15-1.35-.25a2.228 2.228 0 0 1-.835-.543 2.264 2.264 0 0 1-.543-.835c-.099-.256-.219-.642-.25-1.35-.034-.767-.043-.997-.043-2.938s.008-2.174.043-2.938c.031-.71.151-1.094.25-1.35.117-.315.301-.602.546-.835.236-.242.52-.426.835-.543.256-.099.642-.219 1.35-.25.767-.034.997-.043 2.938-.043 1.944 0 2.174.008 2.938.043.71.031 1.094.151 1.35.25.315.116.602.301.835.543.241.236.426.52.543.835.099.256.219.642.25 1.35.034.767.043.997.043 2.938s-.009 2.168-.043 2.935z"/><path fill="var(--color1, #afb1b8)" d="M16.027 12.265a3.737 3.737 0 0 0 0 7.472 3.737 3.737 0 0 0 0-7.472zm0 6.16a2.424 2.424 0 1 1 0-4.849 2.424 2.424 0 0 1 0 4.849zM20.784 12.117a.872.872 0 1 1-1.744 0 .872.872 0 0 1 1.744 0z"/></symbol><symbol id="icon-smartphone" viewBox="0 0 20 32"><use xlink:href="#reuse-3"/><path fill="var(--color2, #757575)" d="M4.707 27.478c.391.365.391.956 0 1.321s-1.024.365-1.414 0c-.391-.365-.391-.956 0-1.321s1.024-.365 1.414 0z"/></symbol><symbol id="icon-twitter" viewBox="0 0 32 32"><use xlink:href="#reuse-0"/><use xlink:href="#reuse-4"/></symbol><symbol id="icon-yaco" viewBox="0 0 57 32"><path d="m20.267 3.733 3.738 3.538-6.938-.004v17.166H35.2v-6.564l3.733 3.534V3.732H20.266zm14.769 13.722L24.439 7.423h10.597v10.032zm-3.29 4.468h-11.81V10.378h.835v10.764h10.975v.782zm-9.021 4.797-.436.898-.436-.898h-.366l.637 1.198v.698h.331v-.698l.635-1.198h-.365zm.548 1.895.154-.441h.734l.155.441h.344l-.717-1.896h-.296l-.716 1.896h.342zm.521-1.493.275.786h-.549l.275-.786zm1.737.741a.429.429 0 0 0-.072.241c0 .16.056.29.168.389s.263.148.451.148.349-.051.484-.152l.107.126h.367l-.279-.329a.95.95 0 0 0 .164-.574h-.275a.758.758 0 0 1-.079.348l-.366-.432.129-.094c.091-.066.157-.132.197-.198s.06-.14.06-.219c0-.12-.044-.22-.133-.301s-.201-.122-.339-.122c-.153 0-.274.043-.365.13s-.135.203-.135.352c0 .061.014.124.043.189s.081.144.155.237a1.12 1.12 0 0 0-.283.262zm.855.419a.485.485 0 0 1-.299.107c-.095 0-.17-.027-.227-.082s-.085-.126-.085-.214c0-.102.052-.192.156-.271l.04-.029.414.488zm-.34-.84c-.089-.11-.134-.202-.134-.275 0-.063.018-.116.055-.158s.085-.063.147-.063c.057 0 .105.018.142.053s.056.077.056.126a.235.235 0 0 1-.081.184l-.04.033-.145.099zm3.086 1.03a.689.689 0 0 0 .224-.474h-.328c-.017.135-.059.232-.124.29s-.162.087-.292.087c-.142 0-.249-.054-.323-.161s-.109-.264-.109-.469v-.168c.002-.202.041-.355.117-.46s.188-.158.331-.158c.123 0 .217.03.28.091s.104.158.12.294h.328c-.021-.207-.095-.368-.223-.482s-.296-.171-.505-.171a.718.718 0 0 0-.683.426 1.116 1.116 0 0 0-.095.473v.177c.003.174.035.328.098.46s.151.234.266.306a.748.748 0 0 0 .4.107c.216 0 .389-.056.52-.169zm1.936-.266c.064-.141.096-.304.096-.49v-.105c-.001-.185-.034-.347-.099-.486a.726.726 0 0 0-.687-.432.757.757 0 0 0-.411.113c-.119.075-.211.183-.277.324s-.098.305-.098.49v.107c.001.181.034.342.099.48s.159.246.279.322a.764.764 0 0 0 .411.112c.155 0 .293-.037.411-.112s.212-.183.276-.323zm-.352-1.071c.08.112.12.273.12.483v.099c0 .214-.04.376-.119.487s-.19.167-.336.167c-.144 0-.257-.057-.339-.171s-.121-.275-.121-.483v-.109c.002-.204.043-.362.122-.473s.192-.168.335-.168c.146 0 .258.056.337.168z"/></symbol><symbol id="icon-envelope1" viewBox="0 0 38 32"><path fill="var(--color2, #757575)" d="M29.6 0H8.8a2.403 2.403 0 0 0-2.4 2.4v14.4c0 1.323 1.077 2.4 2.4 2.4h20.8c1.323 0 2.4-1.077 2.4-2.4V2.4C32 1.077 30.923 0 29.6 0zm0 1.6c.109 0 .213.022.307.062L19.2 10.942 8.493 1.662A.782.782 0 0 1 8.8 1.6h20.8zm0 16H8.8a.8.8 0 0 1-.8-.8V3.352l10.675 9.253a.797.797 0 0 0 1.051-.001L30.4 3.352V16.8a.8.8 0 0 1-.8.8z"/></symbol><symbol id="icon-facebook1" viewBox="0 0 32 32"><use xlink:href="#reuse-0"/><use xlink:href="#reuse-1"/></symbol><symbol id="icon-group-brand" viewBox="0 0 43 32"><path  d="M3.239 26.373a.98.98 0 0 1 .25.665c.008.158-.022.315-.089.46s-.169.275-.298.38a1.788 1.788 0 0 1-1.125.307H0V23.97h1.937c.382-.023.761.076 1.073.28.125.096.224.217.289.354s.095.286.086.435a.923.923 0 0 1-.225.645 1.06 1.06 0 0 1-.589.329c.262.044.499.172.668.36zM.92 25.737h.828a.835.835 0 0 0 .526-.14c.062-.052.111-.116.141-.187s.043-.148.036-.225c.006-.076-.007-.153-.037-.224s-.078-.135-.138-.188a.858.858 0 0 0-.542-.142H.92v1.106zm1.435 1.616c.066-.053.119-.119.153-.193s.049-.155.043-.235c.005-.081-.01-.163-.045-.238s-.088-.142-.155-.195a.907.907 0 0 0-.562-.152H.921v1.159H1.8a.93.93 0 0 0 .556-.146zM7.197 28.185 6.12 26.538h-.405v1.647h-.927V23.97h1.754c.442-.028.879.1 1.221.358.245.229.393.53.417.85s-.078.637-.287.894a1.46 1.46 0 0 1-.837.428l1.147 1.684H7.195zm-1.482-2.222h.758c.526 0 .789-.213.789-.638a.586.586 0 0 0-.193-.473.87.87 0 0 0-.596-.171h-.767l.009 1.283zM12.262 27.337h-1.847l-.326.848h-.972l1.696-4.168h1.05l1.689 4.168h-.972l-.319-.848zm-.247-.639-.675-1.779-.675 1.779h1.349zM18.602 28.185h-.92l-2.062-2.867v2.867h-.918V23.97h.918l2.062 2.883V23.97h.92v4.215zM23.852 27.176c-.19.318-.48.577-.832.743-.4.185-.845.276-1.293.266H20.09V23.97h1.637c.448-.011.891.078 1.293.259.352.163.642.419.832.735.189.343.288.722.288 1.106s-.099.763-.288 1.106zm-1.053-.101c.263-.28.407-.637.407-1.006s-.144-.726-.407-1.006a1.692 1.692 0 0 0-1.152-.358h-.639v2.729h.639a1.7 1.7 0 0 0 1.152-.358zM12.838.522s11.873 4.104 11.621 10.043V20.61s-11.864-4.106-11.617-10.045L12.837.522zM35.037 18.259c2.242-1.413 4.836-2.288 7.544-2.545v-3.145c-3.12 1.101-5.766 3.097-7.544 5.69z"/><path fill="var(--color1, #afb1b8)" d="M33.69 19.206c1.835-3.384 5.017-5.995 8.891-7.296V2.849S25.672 8.695 26.03 17.153v14.302s.753-.262 1.939-.752c0-.457 0-.918.054-1.382.35-3.926 2.389-7.565 5.668-10.115z"/><path fill="var(--color1, #afb1b8)" d="M32.081 24.52a13.62 13.62 0 0 1 .592-2.928c-2.042 2.203-3.278 4.936-3.536 7.815-.025.272-.038.544-.045.824a50.77 50.77 0 0 0 3.252-1.569 13.564 13.564 0 0 1-.263-4.141zM32.754 24.571a12.973 12.973 0 0 0 .209 3.75c4.62-2.531 9.811-6.442 9.611-11.168v-.412c-3.301.338-6.389 1.659-8.79 3.76a13.125 13.125 0 0 0-1.03 4.069z"/></symbol><symbol id="icon-group-compan" viewBox="0 0 34 32"><path fill="var(--color1, #afb1b8)" d="M5.643 31.315a.095.095 0 0 1 .064.025l.166.159a1.373 1.373 0 0 1-.467.302c-.21.076-.435.113-.663.108a1.77 1.77 0 0 1-.623-.101 1.37 1.37 0 0 1-.469-.285 1.277 1.277 0 0 1-.303-.44 1.472 1.472 0 0 1-.106-.565 1.31 1.31 0 0 1 .436-1.007c.142-.124.312-.222.499-.287.205-.069.422-.103.642-.101.204-.004.407.027.596.092.165.062.316.148.447.255l-.139.17a.173.173 0 0 1-.035.031.097.097 0 0 1-.056.013.136.136 0 0 1-.06-.018l-.075-.045-.104-.058a1.3 1.3 0 0 0-.139-.056 1.46 1.46 0 0 0-.436-.063 1.328 1.328 0 0 0-.461.076c-.136.048-.26.121-.361.213a.987.987 0 0 0-.235.339 1.155 1.155 0 0 0-.085.448 1.17 1.17 0 0 0 .085.455.994.994 0 0 0 .231.338.938.938 0 0 0 .345.209c.136.049.281.073.428.072.085.001.17-.004.253-.014a1.01 1.01 0 0 0 .548-.233.127.127 0 0 1 .079-.029zM10.441 30.517c.003.192-.035.382-.112.561-.068.163-.174.311-.313.436s-.306.222-.491.286a2.02 2.02 0 0 1-1.263 0 1.454 1.454 0 0 1-.488-.287 1.288 1.288 0 0 1-.316-.44 1.462 1.462 0 0 1 0-1.125c.071-.164.178-.314.316-.442.139-.12.305-.214.488-.276a1.992 1.992 0 0 1 1.263 0c.185.065.351.163.49.287.137.125.243.273.314.435.077.181.115.372.112.565zm-.436 0a1.186 1.186 0 0 0-.079-.451.941.941 0 0 0-.222-.338.971.971 0 0 0-.351-.213 1.456 1.456 0 0 0-.918 0 .971.971 0 0 0-.351.213.897.897 0 0 0-.224.338 1.322 1.322 0 0 0 0 .903.926.926 0 0 0 .575.549 1.5 1.5 0 0 0 .918 0 .98.98 0 0 0 .351-.211.933.933 0 0 0 .222-.338c.056-.145.082-.298.079-.451zM13.715 30.99l.044.101c.017-.036.031-.069.048-.101a.95.95 0 0 1 .054-.099l1.062-1.677c.021-.029.039-.047.06-.052a.283.283 0 0 1 .087-.009h.314v2.727h-.372v-2.09a.737.737 0 0 1 0-.094l-1.068 1.7c-.014.025-.035.047-.063.062s-.059.023-.091.023h-.06c-.032 0-.064-.007-.091-.022s-.049-.037-.062-.062l-1.099-1.711v2.189h-.359v-2.722h.314a.28.28 0 0 1 .087.009c.026.011.046.03.058.052l1.084 1.678a.662.662 0 0 1 .054.097zM17.71 30.855v1.021h-.415v-2.723h.926c.175-.003.349.017.517.059.134.033.259.091.366.17a.713.713 0 0 1 .208.267.825.825 0 0 1 .071.348.771.771 0 0 1-.301.621 1.062 1.062 0 0 1-.368.18 1.757 1.757 0 0 1-.501.063l-.503-.007zm0-.293h.503a1.2 1.2 0 0 0 .322-.041.71.71 0 0 0 .233-.117.526.526 0 0 0 .191-.409c.005-.076-.009-.151-.042-.222s-.082-.134-.145-.186a.889.889 0 0 0-.559-.146h-.503v1.122zM23.294 31.88h-.328a.158.158 0 0 1-.091-.025.17.17 0 0 1-.054-.063l-.282-.659H21.12l-.293.659a.152.152 0 0 1-.145.088h-.328l1.246-2.727h.432l1.263 2.727zm-2.057-1.013h1.172l-.494-1.11a1.746 1.746 0 0 1-.093-.256l-.048.143a1.122 1.122 0 0 1-.046.116l-.49 1.108zM25.089 29.165a.178.178 0 0 1 .062.049l1.818 2.056v-2.117h.372v2.727h-.208a.201.201 0 0 1-.085-.016.24.24 0 0 1-.067-.05l-1.816-2.054a.737.737 0 0 1 0 .094v2.027h-.372v-2.727h.22a.191.191 0 0 1 .075.013zM30.402 30.795v1.083h-.415v-1.083l-1.149-1.642h.372a.15.15 0 0 1 .089.023.23.23 0 0 1 .056.061l.719 1.059a1.064 1.064 0 0 1 .127.242l.054-.117a.975.975 0 0 1 .071-.125l.708-1.067a.295.295 0 0 1 .054-.058.14.14 0 0 1 .089-.027h.376l-1.151 1.65zM13.51 24.576c.181.02.364.036.548.051 2.803-1.089 5.174-2.873 6.817-5.126s2.485-4.878 2.421-7.546l-3.089-2.684c.628 2.84.334 5.776-.849 8.479s-3.208 5.067-5.849 6.827z"/><path fill="var(--color1, #afb1b8)" d="m12.407 24.451.083.014c2.822-1.754 4.974-4.203 6.176-7.03s1.402-5.904.571-8.83l-4.4-3.823c1.78 3.142 2.496 6.659 2.066 10.141s-1.989 6.786-4.496 9.528zM27.328 15.106c-.747 2.931-2.563 5.574-5.177 7.537a16.49 16.49 0 0 1-2.46 1.534c2.128-.544 4.085-1.504 5.718-2.809s2.9-2.917 3.703-4.714l-1.784-1.549z"/><path fill="var(--color1, #afb1b8)" d="m26.628 14.674-2.541-2.207c-.049 2.517-.872 4.976-2.385 7.123s-3.66 3.902-6.217 5.084h.012c.57 0 1.139-.03 1.705-.088 2.39-.848 4.502-2.196 6.147-3.926s2.771-3.785 3.278-5.985zM12.774 3.17 9.743.533c-2.709.91-5.04 2.509-6.686 4.588S.526 9.663.517 12.187c.01 2.789 1.09 5.495 3.07 7.69s4.745 3.754 7.859 4.43c2.78-2.942 4.407-6.579 4.646-10.38s-.924-7.569-3.319-10.757zM33.63 14.268c-.011-3.309-1.529-6.479-4.221-8.818s-6.342-3.658-10.15-3.668a16.144 16.144 0 0 0-5.146.832L32.67 18.737a10.94 10.94 0 0 0 .96-4.469z"/></symbol><symbol id="icon-group-company" viewBox="0 0 25 32"><path fill="var(--color1, #afb1b8)" d="M10.531 1.806h-.084a9.985 9.985 0 0 0-.388-.014h-.28c-.244 0-.494.006-.741.019a.523.523 0 0 0-.056 0 17.4 17.4 0 0 0-6.471 1.651l-.266.128v13.625l.623-.211a23.32 23.32 0 0 1 1.731-.513 21.155 21.155 0 0 1 4.982-.662v1.79a15.56 15.56 0 0 0-.655.019h-.051a19.948 19.948 0 0 0-3.833.588c-1.59.398-3.124.996-4.566 1.779V2.53A18.3 18.3 0 0 1 5.266.582 18.343 18.343 0 0 1 9.781 0h.263c.314.008.621.022.909.044.759.053 1.511.173 2.249.358v1.762a13.947 13.947 0 0 0-2.179-.329l-.045-.004c-.152-.013-.304-.026-.446-.026zm3.102 1.801c.391.03.796.044 1.205.044a19.352 19.352 0 0 0 4.747-.609c1.589-.4 3.123-.998 4.564-1.781v17.163a18.313 18.313 0 0 1-4.792 1.948 18.486 18.486 0 0 1-4.515.581 13.778 13.778 0 0 1-3.425-.404V3.274c.265.061.537.117.814.164.455.077.934.133 1.401.167zm8.734.133-.623.21c-.573.192-1.15.365-1.731.518a21.098 21.098 0 0 1-5.173.663c-.406 0-.78-.011-1.141-.034l-.497-.033v14.017l.427.038c.395.034.803.052 1.214.052a16.573 16.573 0 0 0 4.074-.527 17.107 17.107 0 0 0 3.184-1.144l.266-.128V3.742zM1.684 25.977a.912.912 0 0 0-.693-.28 1.034 1.034 0 0 0-.4.075.91.91 0 0 0-.512.518 1.023 1.023 0 0 0-.072.387v2.335c-.006.165.026.328.092.479.055.12.135.226.233.313a.815.815 0 0 0 .321.166c.114.032.231.048.349.049a.972.972 0 0 0 .892-.61.951.951 0 0 0 .075-.372v-.261h-.61v.208a.528.528 0 0 1-.036.208.359.359 0 0 1-.089.131.365.365 0 0 1-.128.067.425.425 0 0 1-.128.022.314.314 0 0 1-.286-.125.548.548 0 0 1-.081-.313v-2.177a.738.738 0 0 1 .075-.349.31.31 0 0 1 .299-.141.33.33 0 0 1 .272.131c.068.09.104.2.101.313v.202h.604v-.238a1.093 1.093 0 0 0-.279-.737zM5.31 25.95a1.051 1.051 0 0 0-1.38 0 .961.961 0 0 0-.237.327 1.099 1.099 0 0 0-.089.452v2.239a1.08 1.08 0 0 0 .089.459c.055.12.136.227.237.313a.94.94 0 0 0 .322.197 1.028 1.028 0 0 0 .728 0c.121-.044.233-.111.33-.197a.948.948 0 0 0 .23-.313 1.08 1.08 0 0 0 .089-.459v-2.239a1.08 1.08 0 0 0-.089-.452 1.015 1.015 0 0 0-.23-.327zm-.285 3.019a.405.405 0 0 1-.121.324.445.445 0 0 1-.574 0 .397.397 0 0 1-.121-.324V26.73a.405.405 0 0 1 .121-.324.445.445 0 0 1 .574 0 .397.397 0 0 1 .121.324v2.239zM10.072 29.969V25.73h-.587l-.771 2.244h-.011l-.777-2.244h-.581v4.239h.606V27.39h.011l.593 1.823h.302l.598-1.823h.011v2.579h.606zM13.513 26.027a.84.84 0 0 0-.343-.232 1.363 1.363 0 0 0-.439-.066h-.9v4.239h.604v-1.656h.311c.188.009.376-.031.545-.116a.882.882 0 0 0 .332-.324 1.02 1.02 0 0 0 .139-.369c.024-.16.035-.321.033-.482a2.421 2.421 0 0 0-.059-.606.898.898 0 0 0-.223-.39zm-.312 1.292a.547.547 0 0 1-.056.221.346.346 0 0 1-.156.149.619.619 0 0 1-.285.053h-.275v-1.441h.311a.578.578 0 0 1 .272.053.349.349 0 0 1 .142.157.62.62 0 0 1 .053.236v.282c0 .099.006.2 0 .291h-.006zM16.374 25.73h-.495l-.934 4.239h.604l.177-.911h.823l.177.911h.604l-.957-4.239zm-.557 2.751.297-1.537h.011l.296 1.537h-.604zM20.277 28.284h-.011l-.912-2.554h-.581v4.239h.604V27.42h.012l.923 2.549h.568V25.73h-.604v2.554zM23.968 25.73l-.486 1.685h-.012l-.486-1.685h-.64l.83 2.447v1.792h.604v-1.792l.83-2.447h-.64zM0 31.166h.291v.817h.198v-.817h.29v-.167H.001v.167zM2.447 30.998l-.381.984h.21l.081-.224h.392l.084.224h.215l-.391-.984h-.21zm-.031.595.134-.365.134.365h-.268zM4.866 31.62h.227v.127a.382.382 0 0 1-.234.083.244.244 0 0 1-.209-.093.411.411 0 0 1-.073-.257c0-.219.095-.329.283-.329a.206.206 0 0 1 .222.157l.195-.038c-.042-.192-.181-.289-.417-.289a.495.495 0 0 0-.344.127.494.494 0 0 0-.141.379.532.532 0 0 0 .126.369.477.477 0 0 0 .374.144.59.59 0 0 0 .417-.157v-.388h-.427v.166zM7.337 30.998h-.199v.984h.69v-.167h-.49v-.817zM9.426 30.998h-.199v.984h.199v-.984zM11.469 31.656l-.403-.657h-.193v.984h.185v-.643l.395.643h.198v-.984h-.182v.657zM13.315 31.549h.49v-.167h-.49v-.216h.528v-.167h-.727v.984h.747v-.167h-.548v-.266zM17.792 31.387h-.388v-.388h-.198v.984h.198v-.43h.388v.43h.198v-.984h-.198v.388zM19.649 31.549h.492v-.167h-.492v-.216h.529v-.167h-.727v.984h.746v-.167h-.548v-.266zM22.168 31.549c.171-.027.258-.117.258-.274a.236.236 0 0 0-.096-.219.553.553 0 0 0-.288-.058h-.417v.984h.198v-.412h.039a.261.261 0 0 1 .123.022.21.21 0 0 1 .07.072l.215.313h.237l-.12-.192a.685.685 0 0 0-.218-.236zm-.199-.136h-.146v-.247h.156a.526.526 0 0 1 .201.023c.014.013.026.029.033.046a.133.133 0 0 1-.005.111.128.128 0 0 1-.037.043.547.547 0 0 1-.201.023zM24.067 31.549h.49v-.167h-.49v-.216h.529v-.167h-.729v.984h.747v-.167h-.548v-.266z"/></symbol><symbol id="icon-group-foster" viewBox="0 0 65 32"><path fill="var(--color4, #2196f3)" d="M10.016 9.983h-.002c-1.827 0-3.308 1.316-3.308 2.94v.002c0 1.624 1.481 2.94 3.308 2.94h.002c1.827 0 3.308-1.316 3.308-2.94v-.002c0-1.624-1.481-2.94-3.308-2.94zM34.434 9.043c-.005-2.255-1.015-4.417-2.81-6.012S27.398.538 24.86.533c-2.538.004-4.972.902-6.767 2.497s-2.806 3.757-2.811 6.013v12.436s19.149-1.895 19.151-12.434v-.002zM0 25.562c.005 1.569.708 3.073 1.956 4.183s2.94 1.735 4.706 1.74c1.765-.005 3.457-.63 4.705-1.739s1.952-2.613 1.957-4.182V16.91S-.001 18.23-.001 25.562zm6.662 1.55c-.345 0-.682-.091-.969-.261s-.511-.413-.643-.696-.167-.595-.099-.896.233-.577.477-.794.555-.364.893-.424c.338-.06.689-.029 1.008.088s.591.316.783.571a1.404 1.404 0 0 1 .163 1.456c-.087.189-.216.36-.378.505-.162.145-.355.259-.567.338s-.439.119-.669.119v-.006zM20.128 26.258h-1.286v1.328h-.67v-3.25h2.116v.542h-1.446v.839h1.286v.54zm3.218-.223c0 .32-.057.6-.17.842s-.275.427-.487.558c-.21.131-.451.196-.723.196a1.289 1.289 0 0 1-1.212-.748 1.907 1.907 0 0 1-.176-.83v-.161c0-.32.057-.601.172-.844a1.285 1.285 0 0 1 1.212-.756c.271 0 .511.065.721.196.211.129.374.316.489.56.116.242.174.523.174.841v.145zm-.678-.147c0-.341-.061-.6-.183-.777s-.296-.266-.522-.266a.596.596 0 0 0-.52.263c-.122.174-.184.43-.185.768v.158c0 .332.061.589.183.772s.298.275.527.275a.592.592 0 0 0 .518-.263c.121-.177.182-.434.183-.772v-.158zm2.85.846a.342.342 0 0 0-.134-.29c-.089-.068-.25-.14-.482-.214a3.465 3.465 0 0 1-.551-.223c-.369-.199-.554-.468-.554-.806 0-.176.049-.332.147-.469a.985.985 0 0 1 .426-.324c.186-.077.394-.116.625-.116.232 0 .439.042.621.127a.978.978 0 0 1 .422.355.926.926 0 0 1 .152.522h-.67a.434.434 0 0 0-.141-.346c-.094-.083-.225-.125-.395-.125-.164 0-.291.035-.382.105a.323.323 0 0 0-.136.272c0 .106.053.194.158.266.107.071.264.138.471.201.381.115.659.257.833.426s.261.381.261.634a.785.785 0 0 1-.319.663c-.213.159-.499.239-.859.239-.25 0-.478-.045-.683-.136a1.1 1.1 0 0 1-.471-.377.97.97 0 0 1-.161-.554h.672c0 .359.214.538.643.538a.631.631 0 0 0 .373-.096.318.318 0 0 0 .134-.272zm3.574-1.855h-.996v2.708h-.67v-2.708h-.982v-.542h2.647v.542zm2.339 1.299h-1.286v.871h1.509v.538h-2.179v-3.25h2.174v.542h-1.504v.775h1.286v.525zm1.82.218h-.533v1.19h-.67v-3.25h1.208c.384 0 .68.086.888.257s.312.413.312.725a.998.998 0 0 1-.145.556.979.979 0 0 1-.435.353l.703 1.328v.031h-.719l-.609-1.19zm-.534-.542h.54c.168 0 .298-.042.391-.127a.463.463 0 0 0 .138-.355.49.49 0 0 0-.132-.362c-.086-.088-.219-.132-.4-.132h-.538v.975zm4.058.587v1.145h-.67v-3.25h1.268c.244 0 .458.045.643.134a.98.98 0 0 1 .429.382c.1.164.15.35.15.56 0 .318-.109.57-.328.754-.217.183-.519.275-.904.275h-.587zm0-.542h.598c.177 0 .312-.042.404-.125.094-.083.141-.202.141-.357 0-.159-.047-.288-.141-.386s-.223-.149-.388-.152h-.614v1.02zm4.237.279h-1.286v.871h1.509v.538h-2.179v-3.25h2.174v.542h-1.504v.775h1.286v.525zm3.107-1.299h-.995v2.708h-.67v-2.708h-.982v-.542h2.647v.542zm2.339 1.299h-1.286v.871h1.509v.538h-2.178v-3.25h2.174v.542h-1.504v.775h1.286v.525zm1.819.218h-.533v1.19h-.67v-3.25h1.208c.384 0 .68.086.888.257s.313.413.313.725a.998.998 0 0 1-.145.556.979.979 0 0 1-.435.353l.703 1.328v.031h-.719l-.609-1.19zm-.533-.542h.54c.168 0 .298-.042.391-.127a.463.463 0 0 0 .138-.355.49.49 0 0 0-.132-.362c-.086-.088-.219-.132-.4-.132h-.538v.975zm3.935.88a.342.342 0 0 0-.134-.29c-.089-.068-.25-.14-.482-.214a3.465 3.465 0 0 1-.551-.223c-.369-.199-.554-.468-.554-.806 0-.176.049-.332.147-.469a.985.985 0 0 1 .426-.324c.186-.077.394-.116.625-.116.232 0 .439.042.621.127a.973.973 0 0 1 .422.355.926.926 0 0 1 .152.522h-.67a.434.434 0 0 0-.141-.346c-.094-.083-.225-.125-.395-.125-.164 0-.291.035-.382.105a.323.323 0 0 0-.136.272c0 .106.053.194.158.266.107.071.264.138.471.201.381.115.658.257.833.426s.261.381.261.634a.785.785 0 0 1-.319.663c-.213.159-.499.239-.859.239-.25 0-.478-.045-.683-.136a1.1 1.1 0 0 1-.471-.377.97.97 0 0 1-.161-.554h.672c0 .359.214.538.643.538a.634.634 0 0 0 .373-.096.318.318 0 0 0 .134-.272z"/></symbol><symbol id="icon-group-tagline" viewBox="0 0 67 32"><path fill="var(--color1, #afb1b8)" d="M33.724 15.224a2.095 2.095 0 0 1-.43-1.414v-2.05c0-.628.142-1.106.428-1.433s.775-.489 1.469-.488c.652 0 1.115.139 1.389.417.299.355.444.789.411 1.226v.482h-1.167v-.488a2.476 2.476 0 0 0-.034-.478.467.467 0 0 0-.167-.284.681.681 0 0 0-.423-.111.711.711 0 0 0-.444.117.544.544 0 0 0-.193.313 2.398 2.398 0 0 0-.046.507v2.488c-.018.24.033.48.15.699.058.074.139.132.233.169s.198.05.301.039a.632.632 0 0 0 .413-.113.505.505 0 0 0 .174-.302c.027-.165.039-.332.036-.498v-.505h1.167v.461c.033.456-.109.909-.403 1.289-.268.305-.725.457-1.396.457s-1.179-.163-1.466-.501zM38.583 15.245c-.295-.319-.442-.784-.442-1.4v-2.157c0-.609.147-1.07.442-1.383s.788-.469 1.478-.467c.686 0 1.177.156 1.471.467.295.313.444.774.444 1.383v2.157c0 .609-.15 1.076-.449 1.397s-.788.482-1.466.482c-.679 0-1.181-.163-1.478-.48zm2.022-.518c.106-.2.154-.419.14-.638v-2.641a1.17 1.17 0 0 0-.138-.626c-.059-.075-.142-.135-.238-.172s-.203-.05-.308-.037c-.105-.013-.212 0-.308.037s-.18.096-.24.172a1.15 1.15 0 0 0-.14.626v2.653c-.015.219.033.439.14.638.068.067.152.121.246.158a.82.82 0 0 0 .6 0 .732.732 0 0 0 .246-.158v-.012zM43.38 9.901h1.256l.945 3.979.966-3.979h1.222l.123 5.743h-.904l-.097-3.992-.932 3.992h-.725l-.966-4.006-.089 4.006h-.913l.114-5.743zM49.301 9.901h1.957c1.127 0 1.691.544 1.691 1.631 0 1.041-.593 1.561-1.78 1.56h-.667v2.553h-1.208l.007-5.743zm1.672 2.455c.119.013.24.004.355-.028s.22-.084.309-.154a.928.928 0 0 0 .174-.649 1.801 1.801 0 0 0-.058-.521c-.017-.057-.047-.111-.089-.158s-.093-.086-.153-.116a1.262 1.262 0 0 0-.539-.092h-.469v1.716h.469zM54.691 9.901h1.297l1.331 5.743h-1.126l-.263-1.324h-1.157l-.271 1.324h-1.143l1.331-5.743zm1.109 3.754-.452-2.411-.452 2.411h.903zM58.395 9.901h.846l1.619 3.276V9.901h1.003v5.743h-.804l-1.628-3.42v3.42h-1.036l.002-5.743zM64.209 13.455l-1.346-3.546h1.133l.821 2.277.771-2.277h1.109l-1.329 3.546v2.19h-1.16v-2.19zM35.589 18.156v.3h-.986v2.334h-.413v-2.334h-.99v-.3h2.389zM38.679 20.79h-.319a.139.139 0 0 1-.089-.025.133.133 0 0 1-.053-.06l-.285-.626h-1.367l-.285.626a.172.172 0 0 1-.044.071.152.152 0 0 1-.089.025h-.319l1.208-2.634h.42l1.222 2.624zm-2-.978h1.14l-.483-1.072a1.75 1.75 0 0 1-.089-.248c-.017.05-.031.098-.046.14l-.044.11-.478 1.07zM40.762 20.532c.076.003.151.003.227 0a1.72 1.72 0 0 0 .367-.079c.053-.019.106-.042.162-.065v-.592h-.483c-.012.001-.024-.001-.035-.005s-.021-.009-.03-.016a.062.062 0 0 1-.024-.048v-.202h.937v1.01a1.842 1.842 0 0 1-.51.215c-.099.025-.2.043-.302.054a3.775 3.775 0 0 1-.353.017 1.842 1.842 0 0 1-.609-.098 1.485 1.485 0 0 1-.483-.275 1.293 1.293 0 0 1-.312-.417 1.316 1.316 0 0 1-.111-.547 1.352 1.352 0 0 1 .109-.551c.069-.156.176-.298.312-.417.138-.119.302-.212.483-.273.207-.067.426-.1.647-.098.112 0 .225.008.336.023a1.65 1.65 0 0 1 .53.171c.074.041.144.087.21.138l-.116.163c-.009.015-.023.027-.039.036s-.036.014-.055.014a.16.16 0 0 1-.075-.021 1.582 1.582 0 0 1-.118-.063 1.02 1.02 0 0 0-.162-.071 1.508 1.508 0 0 0-.529-.081 1.407 1.407 0 0 0-.466.073 1.026 1.026 0 0 0-.355.209.918.918 0 0 0-.225.328 1.23 1.23 0 0 0 0 .878.938.938 0 0 0 .242.332c.099.09.219.162.353.209.154.046.316.063.478.052zM44.612 20.49h1.319v.3h-1.722v-2.634h.413l-.01 2.334zM47.304 20.79h-.413v-2.634h.413v2.634zM48.84 18.168a.189.189 0 0 1 .063.048l1.766 1.986a.737.737 0 0 1 0-.094v-1.962h.36v2.645h-.208a.19.19 0 0 1-.089-.015.23.23 0 0 1-.065-.05l-1.764-1.984v2.048h-.345v-2.634h.215c.023 0 .046.004.068.012zM54.07 18.156v.29h-1.464v.87h1.186v.279h-1.186v.899h1.464v.29h-1.889v-2.628h1.889zM10.782 1.888l18.343 4.497v15.757l-18.343-4.494V1.889zM9.605.545v17.867l20.694 5.074V5.621L9.605.545z"/><path fill="var(--color1, #afb1b8)" d="M20.696 31.781 0 26.702V8.836l20.696 5.076V31.78z"/><path fill="var(--color1, #afb1b8)" d="m9.948 1.686 18.104 4.44-7.699 6.649L2.247 8.333l7.702-6.647zM9.605.545 0 8.837l20.696 5.076 9.603-8.292L9.605.545zM21.861 30.776l8.438-7.287-8.438-2.071v9.358z"/></symbol><symbol id="icon-group-union" viewBox="0 0 28 32"><path fill="var(--color1, #afb1b8)" d="m4.085 0 4.771 4.517L0 4.512v21.915h23.149v-8.379l4.766 4.512V.001H4.085zm18.854 17.517L9.411 4.71h13.528v12.807zm-4.2 5.704H3.663V8.482h1.066v13.741h14.01v.998zM7.223 29.344l-.557 1.147-.557-1.147h-.467l.813 1.529v.891h.422v-.891l.811-1.529h-.465zm.7 2.42.196-.563h.938l.198.563h.439l-.916-2.42h-.377l-.914 2.42h.437zm.665-1.906.351 1.004h-.701l.351-1.004zm2.217.946a.55.55 0 0 0-.091.307c0 .204.072.37.214.497.144.126.336.189.575.189s.445-.065.618-.194l.136.161h.469l-.356-.421c.14-.191.209-.435.209-.733h-.351a.973.973 0 0 1-.101.444l-.467-.552.165-.12a.905.905 0 0 0 .251-.253.532.532 0 0 0 .076-.279.496.496 0 0 0-.17-.384.61.61 0 0 0-.432-.156.641.641 0 0 0-.465.166.591.591 0 0 0-.173.449c0 .078.018.158.055.241.038.083.104.184.198.303-.18.129-.3.24-.361.334zm1.092.535a.616.616 0 0 1-.382.136c-.121 0-.217-.035-.289-.105s-.108-.161-.108-.273c0-.13.067-.245.2-.346l.052-.037.529.623zm-.434-1.072c-.114-.141-.171-.258-.171-.351 0-.081.023-.148.07-.201s.109-.08.188-.08c.073 0 .133.023.181.068a.21.21 0 0 1 .072.161.298.298 0 0 1-.103.234l-.052.042-.184.126zm3.94 1.314c.166-.145.262-.347.286-.605h-.419c-.022.173-.075.296-.158.371s-.207.111-.372.111a.468.468 0 0 1-.412-.206c-.093-.137-.14-.337-.14-.598v-.214c.002-.258.052-.454.15-.587a.493.493 0 0 1 .422-.201c.157 0 .277.039.357.116.082.076.133.202.153.376h.419c-.027-.265-.121-.47-.284-.615s-.378-.218-.645-.218a.978.978 0 0 0-.525.141c-.151.094-.267.228-.347.402s-.121.375-.121.603v.226c.003.223.045.418.125.587s.193.299.339.391a.949.949 0 0 0 .51.136c.276 0 .497-.072.663-.216zm2.472-.339c.082-.18.123-.388.123-.625v-.135a1.462 1.462 0 0 0-.126-.62.924.924 0 0 0-.878-.552.957.957 0 0 0-.525.145.939.939 0 0 0-.354.414 1.484 1.484 0 0 0-.125.625v.136c.001.232.043.436.126.613a.962.962 0 0 0 .356.411.98.98 0 0 0 .525.143.97.97 0 0 0 .525-.143.932.932 0 0 0 .352-.412zm-.451-1.368c.102.143.153.349.153.617v.126c0 .273-.05.48-.151.622a.493.493 0 0 1-.429.213.503.503 0 0 1-.432-.218c-.103-.145-.155-.351-.155-.617v-.14c.002-.26.054-.462.156-.603a.496.496 0 0 1 .427-.214c.186 0 .33.072.43.214z"/></symbol><symbol id="icon-in1" viewBox="0 0 32 32"><use xlink:href="#reuse-0"/><use xlink:href="#reuse-2"/></symbol><symbol id="icon-instagram1" viewBox="0 0 32 32"><path fill="var(--color4, #2196f3)" d="M32 16c0 4.418-1.791 8.418-4.686 11.314S20.419 32 16 32s-8.418-1.791-11.314-4.686C1.791 24.419 0 20.419 0 16S1.791 7.582 4.686 4.686 11.581 0 16 0c4.418 0 8.418 1.791 11.314 4.686S32 11.581 32 16z"/><path fill="var(--color3, #fff)" d="M23.258 13.004c-.034-.773-.159-1.304-.338-1.765a3.557 3.557 0 0 0-.841-1.29 3.589 3.589 0 0 0-1.287-.838c-.463-.179-.992-.304-1.764-.338-.779-.037-1.026-.046-3.001-.046s-2.222.009-2.998.043c-.773.034-1.304.159-1.764.338a3.557 3.557 0 0 0-1.29.841 3.589 3.589 0 0 0-.838 1.287c-.179.463-.304.992-.338 1.764-.037.779-.045 1.026-.045 3.001s.008 2.222.043 2.998c.034.773.159 1.304.338 1.765.185.489.472.926.841 1.29.364.369.804.656 1.287.838.463.179.992.304 1.765.338.776.034 1.023.043 2.998.043s2.222-.008 2.998-.043c.773-.034 1.304-.159 1.764-.338a3.72 3.72 0 0 0 2.128-2.128c.179-.463.304-.992.338-1.765.034-.776.043-1.023.043-2.998s-.003-2.222-.037-2.998zm-1.309 5.938c-.031.71-.151 1.094-.25 1.35a2.409 2.409 0 0 1-1.381 1.381c-.256.099-.642.219-1.35.25-.767.034-.997.043-2.938.043s-2.174-.008-2.938-.043c-.71-.031-1.094-.15-1.35-.25a2.228 2.228 0 0 1-.835-.543 2.264 2.264 0 0 1-.543-.835c-.099-.256-.219-.642-.25-1.35-.034-.767-.043-.997-.043-2.938s.008-2.174.043-2.938c.031-.71.151-1.094.25-1.35.117-.315.301-.602.546-.835.236-.242.52-.426.835-.543.256-.099.642-.219 1.35-.25.767-.034.997-.043 2.938-.043 1.944 0 2.174.008 2.938.043.71.031 1.094.151 1.35.25.315.116.602.301.835.543.241.236.426.52.543.835.099.256.219.642.25 1.35.034.767.043.997.043 2.938s-.009 2.168-.043 2.935z"/><path fill="var(--color3, #fff)" d="M16.027 12.265a3.737 3.737 0 0 0 0 7.472c2.063 0 3.737-1.674 3.737-3.736s-1.674-3.736-3.737-3.736zm0 6.16a2.424 2.424 0 1 1 0-4.849 2.424 2.424 0 0 1 0 4.849zM20.784 12.117a.872.872 0 1 1-1.744 0 .872.872 0 0 1 1.744 0z"/></symbol><symbol id="icon-smartphone1" viewBox="0 0 20 32"><use xlink:href="#reuse-3"/><path fill="var(--color2, #757575)" d="M4.708 27.478a.889.889 0 0 1 .001 1.319l-.001.001a1.048 1.048 0 0 1-1.417 0l.001.001a.889.889 0 0 1-.001-1.319l.001-.001a1.048 1.048 0 0 1 1.417 0l-.001-.001z"/></symbol><symbol id="icon-twitter1" viewBox="0 0 32 32"><use xlink:href="#reuse-0"/><use xlink:href="#reuse-4"/></symbol></defs></svg>